<svg xmlns="http://www.w3.org/2000/svg" viewBox="0 0 1102.37 1102.37"><defs><style>.cls-1{fill:#e9eff3;}.cls-1,.cls-2{fill-rule:evenodd;}.cls-2{fill:#0d698b;}</style></defs><g id="Ebene_2" data-name="Ebene 2"><g id="Ebene_1-2" data-name="Ebene 1"><path class="cls-1" d="M0,225.1H0C0,100.78,100.78,0,225.1,0H877.27a225.1,225.1,0,0,1,225.1,225.1V877.27c0,124.32-100.78,225.1-225.1,225.1H225.1C100.78,1102.37,0,1001.59,0,877.27Z"/><path class="cls-2" d="M553.71,275.41c56.1,32.25,113,47.44,169.63,47.44a323.93,323.93,0,0,0,68-7.27V504.76c0,147.26-97.06,279.49-237.63,324.65C413.09,787.6,314.38,652,314.38,504.76V315.58a334.28,334.28,0,0,0,68.8,7.27C440,322.85,496.39,307.66,553.71,275.41Zm-1.49-37.66a15,15,0,0,0-8.55,2.55c-55.25,31.77-108.8,46.85-164,46.85-26.77,0-53.55-5-82-13.38a19.2,19.2,0,0,0-5.05-.69c-4.3,0-8,1.59-11.69,4-3.35,3.35-8.34,8.34-8.34,13.39V503.06c6.69,169,117.14,314.66,276.15,361.51h8.39c159-46.85,272.8-192.47,272.8-359.81V293.85c0-6.7-3.35-11.74-8.34-15.09-2.82-2.76-5.58-4-8.61-4a19,19,0,0,0-8.18,2.33A312.87,312.87,0,0,1,724.24,288c-53.87,0-107.26-15.24-162.19-47.7A21.8,21.8,0,0,0,552.22,237.75Z"/><path class="cls-2" d="M551.23,414a30.06,30.06,0,0,0-29.76,29.77V506h-62.2a29.73,29.73,0,0,0,0,59.45h62.2v62.11a29.72,29.72,0,1,0,59.44,0V565.43h62.2a29.73,29.73,0,0,0,0-59.45h-62.2V443.79A30,30,0,0,0,551.23,414Z"/></g></g></svg>