<svg version="1.1" id="Layer_1" xmlns="http://www.w3.org/2000/svg" xmlns:xlink="http://www.w3.org/1999/xlink" x="0px" y="0px"
	 width="100%" viewBox="0 0 1024 768" enable-background="new 0 0 1024 768" xml:space="preserve">
<path fill="#000000" opacity="1.000000" stroke="none" 
	d="
M646.013062,331.754547 
	C661.977844,326.556732 674.800720,331.911560 686.159119,342.328735 
	C693.734619,349.276489 693.630676,349.374847 701.247620,342.222351 
	C707.830078,336.041321 715.444641,331.975800 724.394714,330.202515 
	C732.180603,328.659882 739.217529,330.677063 746.210876,333.616974 
	C748.481384,334.571472 749.308167,336.520447 749.883484,338.650787 
	C752.572510,348.608002 754.232910,358.778168 756.049438,368.913483 
	C756.246826,370.015015 756.157532,371.292542 755.796509,372.350281 
	C751.862976,383.873779 747.647827,395.252991 739.614685,404.751099 
	C731.814270,413.973969 721.466248,414.622894 710.816223,412.812195 
	C703.811218,411.621185 696.361206,409.994751 694.826050,400.429169 
	C691.671570,402.839752 691.372498,406.424438 688.720032,408.260406 
	C686.053772,410.105988 683.137390,411.373077 680.087830,412.054871 
	C664.327332,415.578705 653.125183,413.398102 644.300354,399.860168 
	C639.523926,392.532745 636.099121,384.637970 633.198181,376.474457 
	C632.666260,374.977509 632.549622,373.135193 632.853027,371.570984 
	C634.972046,360.648590 636.539551,349.618744 639.358582,338.828613 
	C640.286011,335.279053 641.959290,332.772766 646.013062,331.754547 
z"/>
<path fill="#000000" opacity="1.000000" stroke="none" 
	d="
M707.008972,683.167114 
	C711.349121,660.956421 711.434570,639.192200 707.570251,617.280762 
	C705.328430,604.569275 706.304565,591.753906 708.885498,579.076660 
	C711.105286,568.172974 713.445007,557.255127 711.936523,545.999329 
	C711.321106,541.407349 712.666260,537.507935 715.796082,534.102112 
	C722.094421,527.248657 726.795288,518.999756 734.115906,513.037964 
	C739.634827,508.543518 741.352844,508.837555 745.989136,514.380554 
	C752.386780,522.029541 755.306213,530.277710 755.640625,540.715515 
	C756.637573,571.832642 749.836792,601.483276 741.722534,631.074951 
	C738.230774,643.809265 736.579224,656.772217 738.107788,670.057312 
	C738.702332,675.224792 740.776001,679.599915 743.340637,683.919739 
	C747.585571,691.069763 745.575928,694.922729 737.182922,695.207458 
	C729.695862,695.461487 722.193481,695.292908 714.698120,695.260437 
	C706.970337,695.226990 705.245361,693.124146 706.622314,685.560974 
	C706.741577,684.905945 706.814453,684.242432 707.008972,683.167114 
z"/>
<path fill="#000000" opacity="1.000000" stroke="none" 
	d="
M651.098389,649.760620 
	C650.402588,638.769958 647.632690,628.601318 644.700317,618.601685 
	C638.200500,596.436829 633.528503,574.148254 634.443176,550.849365 
	C634.748169,543.079834 633.436279,535.239075 634.500610,527.438049 
	C635.461487,520.395142 640.202576,515.624512 644.848633,510.865112 
	C646.143372,509.538879 647.838562,509.671967 649.490845,510.495880 
	C651.749023,511.621948 653.835510,513.001831 655.537964,514.850769 
	C662.643555,522.567932 669.117065,530.804260 675.326965,539.249084 
	C676.312134,540.588684 677.271118,542.093445 677.162659,543.813293 
	C676.166199,559.607910 679.787354,574.881287 682.323120,590.276917 
	C684.162354,601.443665 683.030212,612.526428 681.115906,623.527466 
	C677.587463,643.804688 678.665833,663.924133 682.580627,683.999939 
	C684.445801,693.564270 683.040344,695.262817 673.284363,695.277283 
	C666.292725,695.287659 659.293030,695.468567 652.311462,695.198486 
	C643.929382,694.874084 641.559143,690.825195 646.123230,684.000916 
	C653.206848,673.409302 652.030273,661.849609 651.098389,649.760620 
z"/>
<path fill="#000000" opacity="1.000000" stroke="none" 
	d="
M697.367981,421.598480 
	C696.946899,418.076416 696.603210,414.990540 696.190369,411.283478 
	C700.921692,412.892822 704.843201,414.741486 708.968140,415.542175 
	C728.623047,419.357391 740.287659,413.471558 749.723267,395.093445 
	C752.262756,390.147125 754.269653,384.927368 757.053040,379.966309 
	C767.768921,426.612396 758.148315,472.745880 754.555664,518.997620 
	C752.978821,519.553040 752.468201,518.305786 751.816467,517.414185 
	C750.538879,515.666260 749.414551,513.800476 748.067871,512.110046 
	C742.436462,505.041748 739.388367,504.754272 732.361023,510.450836 
	C726.192261,515.451416 721.982422,522.131226 717.044067,528.189209 
	C715.705688,529.831116 714.689575,531.840515 711.957825,532.877502 
	C709.990967,529.069946 710.509705,524.835388 710.014587,520.923157 
	C707.550659,501.453979 707.447754,481.670258 703.416443,462.439667 
	C700.608521,449.045349 698.289978,435.674164 697.367981,421.598480 
z"/>
<path fill="#000000" opacity="1.000000" stroke="none" 
	d="
M686.487183,458.559021 
	C682.174561,484.156830 681.274963,509.740387 677.669434,534.998657 
	C675.167480,535.051025 674.651611,533.213989 673.672729,531.987061 
	C669.415649,526.651367 665.228088,521.259766 660.931580,515.956360 
	C659.680237,514.411743 658.226807,513.007019 656.737061,511.683289 
	C648.552795,504.410675 645.208862,504.737549 638.617065,513.360474 
	C637.733398,514.516418 637.217163,516.057556 634.745728,516.533081 
	C630.875610,472.372406 622.305115,428.511261 631.129883,383.973053 
	C633.712219,384.406647 633.823120,386.542542 634.491577,388.078766 
	C636.622253,392.975647 639.076782,397.659119 642.012695,402.143372 
	C652.836609,418.675293 670.042480,419.655548 686.658447,412.757629 
	C688.594116,411.954041 690.142212,410.109955 693.349426,410.617828 
	C691.038940,426.480896 691.842834,442.694000 686.487183,458.559021 
z"/>
<path fill="#000000" opacity="1.000000" stroke="none" 
	d="
M714.923828,150.865021 
	C711.534363,155.222198 707.235229,157.170227 702.223694,157.661713 
	C696.407532,158.232101 690.596497,158.114853 684.770386,157.565460 
	C677.728882,156.901459 673.041321,153.162674 670.353271,146.839325 
	C669.401917,144.601334 668.210754,143.057159 666.005920,141.760162 
	C661.162964,138.911179 658.766174,126.877441 661.456787,120.083855 
	C662.337280,117.860542 663.172791,115.774345 662.390198,113.360977 
	C653.278931,85.265060 679.783569,71.741081 700.793335,74.976944 
	C710.714905,76.505013 719.322510,80.256844 725.072388,89.021599 
	C729.509888,95.785873 729.895691,103.030426 727.807251,110.594780 
	C726.825745,114.149864 726.632019,117.326363 728.306091,121.069489 
	C731.566589,128.359589 727.682251,138.331146 720.782715,143.024841 
	C718.079590,144.863770 716.892822,147.957489 714.923828,150.865021 
z"/>
<path fill="#000000" opacity="1.000000" stroke="none" 
	d="
M724.377258,195.385132 
	C717.592468,204.268539 714.846375,214.336899 713.336548,224.789764 
	C711.331482,238.671677 704.089783,250.365997 697.806641,262.432068 
	C695.781067,266.321960 691.819702,266.017944 689.567200,261.925751 
	C682.661499,249.380005 675.626831,236.841660 673.802979,222.266571 
	C673.009216,215.922623 670.766541,210.029694 668.529480,204.098969 
	C665.738831,196.700760 660.729309,191.906281 653.139038,189.675568 
	C650.620056,188.935257 648.214417,187.809204 645.791260,186.872772 
	C645.985352,184.271240 648.045349,184.266357 649.410461,183.736618 
	C655.460083,181.388962 661.566284,179.184265 667.678284,177.001450 
	C673.363342,174.971115 676.186646,171.373108 675.873047,164.974228 
	C675.554382,158.472580 675.904785,158.677917 682.336426,159.897644 
	C690.065735,161.363464 697.872009,161.276047 705.645630,159.909546 
	C707.253174,159.626968 708.789795,158.721573 710.520081,159.249054 
	C711.799622,161.066696 711.323914,163.137970 711.384033,165.084747 
	C711.575378,171.279617 714.322571,175.441574 720.416870,177.291321 
	C726.146423,179.030380 731.830322,180.922058 737.517883,182.796402 
	C739.503540,183.450806 741.628906,183.916870 743.533264,186.025436 
	C737.010803,189.269211 729.765747,190.128876 724.377258,195.385132 
z"/>
<path fill="#000000" opacity="1.000000" stroke="none" 
	d="
M750.739563,227.534760 
	C749.452759,237.536652 748.008301,247.089096 748.531189,256.773895 
	C748.636230,258.719360 748.115967,260.483368 747.169006,262.003601 
	C742.007935,270.289032 741.435364,279.569519 741.294067,288.900604 
	C741.241882,292.349182 740.085693,294.714966 737.452393,297.021057 
	C730.888855,302.769073 725.657898,309.620422 722.160950,317.713806 
	C721.459900,319.336212 721.293335,321.324280 719.495605,322.415466 
	C717.265076,321.778320 717.331421,319.616608 716.777222,318.041046 
	C711.151245,302.044891 706.862061,285.584259 700.047241,270.000061 
	C699.259033,268.197571 699.488647,266.471710 700.392151,264.728973 
	C701.845154,261.926208 703.042847,258.984283 704.596863,256.241913 
	C710.718872,245.438446 715.277832,234.129196 716.956421,221.707504 
	C717.920166,214.575363 720.659729,207.943939 723.684692,201.424210 
	C725.429688,197.663177 727.309204,196.674744 730.765381,199.621124 
	C735.191650,203.394516 739.811523,206.948090 744.442444,210.472229 
	C750.033875,214.727280 752.299011,220.176056 750.739563,227.534760 
z"/>
<path fill="#000000" opacity="1.000000" stroke="none" 
	d="
M672.916748,233.111420 
	C675.413635,243.534348 680.814270,252.241013 685.505981,261.219147 
	C687.787415,265.584930 687.774780,269.121216 686.012390,273.802643 
	C680.620056,288.126770 676.043701,302.757294 671.085449,317.246552 
	C670.467163,319.053284 670.357178,321.231781 668.375366,322.283508 
	C667.033264,322.155090 666.758850,321.114838 666.413757,320.200623 
	C663.232788,311.771606 658.119507,304.650513 651.597778,298.524719 
	C649.549805,296.601074 648.458984,294.617981 648.429749,291.621460 
	C648.311584,279.528748 646.669922,267.745972 639.962463,257.232605 
	C639.055054,255.810303 638.814880,254.120544 638.857849,252.418671 
	C639.077271,243.715683 637.944580,235.114532 636.503784,226.580826 
	C635.414612,220.129364 637.351929,215.062241 642.260193,211.064285 
	C647.167236,207.067337 652.322632,203.373459 657.193848,199.335175 
	C660.141968,196.891144 661.923828,197.823135 663.380981,200.778046 
	C666.410278,206.920761 668.906433,213.258728 670.256653,220.003662 
	C671.105347,224.243393 671.947876,228.484360 672.916748,233.111420 
z"/>
<path fill="#000000" opacity="1.000000" stroke="none" 
	d="
M568.721436,353.767426 
	C573.002747,341.257385 576.100037,328.824432 578.788391,316.299561 
	C581.260376,304.782959 586.530701,294.515350 592.070984,283.608765 
	C597.914978,290.201660 599.719177,297.962067 602.252136,305.729279 
	C608.837097,301.945953 612.496094,295.526917 618.281128,292.292023 
	C619.823059,293.250854 619.588806,294.100891 619.353394,294.874786 
	C613.863342,312.920654 607.692322,330.657562 596.734802,346.313568 
	C592.329773,352.607513 588.434814,359.213379 586.465210,366.742554 
	C585.454224,370.607544 583.562439,371.498322 579.963562,369.436401 
	C577.089111,367.789429 573.993530,366.410889 570.840820,365.395172 
	C566.423889,363.972137 564.701782,361.772675 567.323730,357.389221 
	C567.913330,356.403595 568.184998,355.227753 568.721436,353.767426 
z"/>
<path fill="#000000" opacity="1.000000" stroke="none" 
	d="
M806.202515,302.005005 
	C811.308716,315.473206 812.840332,329.508514 817.243103,342.769043 
	C819.024353,348.133972 820.579590,353.591705 822.698975,358.820190 
	C824.056335,362.168762 823.196716,363.596985 820.005066,364.745300 
	C815.942688,366.206909 812.019531,368.064178 808.068359,369.822693 
	C805.726562,370.864838 804.197693,370.303619 803.532715,367.790558 
	C800.746643,357.261292 794.138245,348.788361 788.585205,339.726227 
	C780.522339,326.568237 775.438782,312.121643 770.901733,297.468109 
	C770.623718,296.570068 770.175110,295.567017 771.507629,294.283142 
	C775.746033,298.029449 780.028076,301.814362 785.177063,306.365601 
	C787.658447,297.302124 790.710571,289.242462 796.453308,281.250031 
	C799.918335,288.606720 802.989136,295.126526 806.202515,302.005005 
z"/>
<path fill="#000000" opacity="1.000000" stroke="none" 
	d="
M711.965454,331.003204 
	C706.467896,333.634399 702.115723,337.252594 697.975586,341.107758 
	C695.127869,343.759399 692.477783,343.840881 689.652893,341.250824 
	C684.607361,336.624695 679.364685,332.294250 672.840454,329.835815 
	C670.562683,328.977509 670.654053,327.311676 671.324890,325.341736 
	C676.947632,308.830292 682.508240,292.297607 688.159851,275.796112 
	C688.632690,274.415680 689.476440,273.084076 690.419983,271.957886 
	C693.129883,268.723694 695.880615,268.832031 697.848389,272.627686 
	C699.670776,276.142853 700.939331,279.970276 702.210510,283.741577 
	C706.721924,297.125824 710.954590,310.607239 715.683167,323.913147 
	C717.130005,327.984314 716.065125,329.818909 711.965454,331.003204 
z"/>
<path fill="#000000" opacity="1.000000" stroke="none" 
	d="
M600.919434,293.091095 
	C600.005554,291.268677 599.519958,289.543701 598.448608,288.340179 
	C590.892090,279.851532 593.078491,270.522858 595.901428,261.114136 
	C596.283508,259.840515 596.911682,258.637207 597.251831,257.355164 
	C598.992188,250.794754 602.429199,246.501846 609.633667,244.760437 
	C616.559082,243.086472 622.801270,239.232605 628.698853,235.071640 
	C630.152344,234.046188 631.390076,232.529144 634.125244,232.394913 
	C635.809753,243.449844 638.544861,254.424973 633.707703,265.460907 
	C633.039856,266.984497 631.929626,268.375519 631.549744,269.954407 
	C627.970215,284.828949 614.197571,290.586639 604.918884,300.547821 
	C602.034790,298.697693 602.442810,295.586212 600.919434,293.091095 
z"/>
<path fill="#000000" opacity="1.000000" stroke="none" 
	d="
M761.780823,278.096375 
	C759.623230,273.548584 757.782166,269.251068 755.573486,265.151642 
	C749.896790,254.615524 750.987793,243.768814 753.344971,232.935089 
	C755.300720,232.129211 756.225708,233.306152 757.271118,234.037857 
	C765.523132,239.813873 774.402710,244.334930 784.112671,247.049591 
	C787.326172,247.947983 789.326294,249.634781 790.332275,252.802551 
	C791.338562,255.971008 792.706665,259.023865 793.732422,262.186981 
	C796.188782,269.761963 797.697998,276.961121 791.528198,284.056152 
	C787.684937,288.475830 785.936890,294.504913 783.183228,301.277893 
	C776.198975,292.626099 765.739197,288.847717 761.780823,278.096375 
z"/>
<path fill="#000000" opacity="1.000000" stroke="none" 
	d="
M743.493286,205.508453 
	C739.167236,202.141388 735.121948,198.995728 730.987244,195.780518 
	C732.530273,192.652496 735.426697,192.478683 737.742798,191.515396 
	C754.790894,184.424927 775.624939,189.908630 778.853821,214.784073 
	C780.002808,223.635880 782.081970,232.056107 785.570618,240.199768 
	C786.025696,241.261932 786.525635,242.341522 785.955505,243.584152 
	C784.963623,244.591278 783.817810,244.131104 782.737488,243.759384 
	C773.700439,240.649750 765.269775,236.403732 757.770142,230.408661 
	C755.463745,228.564987 754.094421,226.661102 754.348938,223.263718 
	C754.958496,215.127136 749.615967,210.189468 743.493286,205.508453 
z"/>
<path fill="#000000" opacity="1.000000" stroke="none" 
	d="
M614.523438,201.743790 
	C624.290649,186.501099 642.209900,185.524902 655.896118,194.868866 
	C655.726318,197.172668 653.705994,197.998718 652.232666,199.204315 
	C647.855652,202.785828 643.321289,206.180817 639.034607,209.865295 
	C635.034180,213.303726 633.120972,217.824615 633.246521,223.141006 
	C633.298096,225.324661 633.378540,227.432922 631.414307,229.057571 
	C623.764282,235.385101 615.309998,240.246704 605.843567,243.289062 
	C605.262329,243.475861 604.568726,243.313324 603.836060,243.313324 
	C603.670837,242.730927 603.303162,242.172836 603.449890,241.845093 
	C608.191223,231.255234 609.799011,219.876373 611.973877,208.629959 
	C612.409851,206.375336 613.533936,204.253754 614.523438,201.743790 
z"/>
<path fill="#000000" opacity="1.000000" stroke="none" 
	d="
M722.383789,325.220093 
	C725.458862,314.947449 731.062500,306.811066 739.774292,299.321045 
	C741.289246,310.330566 745.345764,319.703064 747.217529,329.682953 
	C744.640991,330.708374 743.001465,329.166565 741.182922,328.658600 
	C736.232300,327.275787 731.347351,325.657440 726.072266,326.988861 
	C724.700012,327.335266 723.007996,327.633240 722.383789,325.220093 
z"/>
<path fill="#000000" opacity="1.000000" stroke="none" 
	d="
M643.578979,323.523071 
	C645.444275,316.087585 648.217957,309.304230 649.347717,301.085846 
	C657.858704,308.105774 662.701111,316.313416 665.677185,327.145508 
	C657.401733,326.110779 650.153442,326.915955 643.268372,329.647430 
	C642.048584,327.283417 643.024536,325.609711 643.578979,323.523071 
z"/>
</svg>