<svg version="1.1" id="Layer_1" xmlns="http://www.w3.org/2000/svg" xmlns:xlink="http://www.w3.org/1999/xlink" x="0px" y="0px"
	 width="100%" viewBox="0 0 1024 768" enable-background="new 0 0 1024 768" xml:space="preserve">
<path fill="#000000" opacity="1.000000" stroke="none" 
	d="
M388.832275,501.107483 
	C384.932373,502.180145 381.444489,503.635468 377.858795,503.940460 
	C368.248077,504.757904 361.548523,509.943817 355.966339,517.230713 
	C354.609222,519.002258 353.517792,521.249146 350.404144,521.559326 
	C348.806091,515.273743 348.421265,508.857727 347.749146,502.510254 
	C346.156189,487.465820 346.005615,472.173767 342.249451,457.485992 
	C337.755341,439.912628 337.290405,421.976654 335.624908,404.125000 
	C335.270172,400.323029 336.399567,398.011047 340.003540,396.246643 
	C350.448669,391.133087 356.367096,381.311005 363.345734,372.690796 
	C371.090912,363.123749 378.443268,353.238892 385.989990,343.510498 
	C386.786957,342.483124 387.740540,341.577271 389.124695,340.065369 
	C391.864960,344.466888 392.192017,349.172913 393.085541,353.516815 
	C398.490814,379.795166 402.011078,406.331573 401.957306,433.202606 
	C401.929688,447.009766 400.243195,460.750610 398.748627,474.477295 
	C398.226837,479.269623 397.394745,484.061859 397.333496,488.862122 
	C397.256775,494.868591 395.255127,499.172974 388.832275,501.107483 
z"/>
<path fill="#000000" opacity="1.000000" stroke="none" 
	d="
M330.639282,430.945007 
	C330.650909,444.636108 325.831696,457.141327 324.358124,470.168335 
	C322.528137,486.346222 321.007721,502.559052 319.339844,518.755371 
	C319.208588,520.030090 319.513000,521.468384 317.860107,522.623535 
	C315.043945,522.014465 313.533875,519.480835 311.910919,517.341003 
	C306.229553,509.849792 299.222076,505.301300 289.569366,503.855408 
	C273.765900,501.488098 273.173645,500.629913 271.165558,484.791016 
	C267.835632,458.526825 265.491760,432.179504 267.784760,405.674011 
	C269.577972,384.945770 273.485077,364.546204 277.897949,344.240234 
	C278.022888,343.665283 278.518066,343.170807 278.996429,342.381836 
	C283.047394,345.136658 285.079712,349.240662 287.701660,352.737549 
	C296.792084,364.861450 306.454926,376.515442 316.181946,388.119141 
	C319.211914,391.733704 323.091797,394.465271 327.325653,396.398407 
	C331.123962,398.132721 332.153778,400.784698 332.223206,404.663971 
	C332.378448,413.340820 331.789307,421.949249 330.639282,430.945007 
z"/>
<path fill="#000000" opacity="1.000000" stroke="none" 
	d="
M383.148560,684.058350 
	C386.872986,691.022156 385.114410,694.789856 377.766663,695.108521 
	C369.119507,695.483643 360.438812,695.399719 351.783325,695.147583 
	C346.680725,694.998962 344.850250,692.047180 346.072021,686.375671 
	C349.601776,669.991150 350.884155,653.433594 349.670502,636.742554 
	C349.152802,629.622925 347.852325,622.554443 346.779968,615.482117 
	C344.566010,600.880371 347.215485,586.675537 349.942596,572.429382 
	C352.240143,560.427063 352.576691,548.299438 351.079285,536.151672 
	C350.412476,530.742188 349.944550,525.623535 355.545715,521.990540 
	C357.824036,520.512817 359.301086,517.798889 361.140289,515.645264 
	C364.954559,511.178894 369.632843,508.143311 375.521881,507.337830 
	C382.119904,506.435425 388.388550,504.379974 394.555511,501.706207 
	C394.924805,502.601746 395.267914,503.037994 395.257843,503.465973 
	C394.656464,529.094910 395.850006,554.770203 393.361389,580.349731 
	C392.291718,591.344849 388.895752,601.840515 386.126465,612.454163 
	C381.714844,629.362000 376.788727,646.146606 377.261017,663.897766 
	C377.450806,671.030640 378.700562,677.794189 383.148560,684.058350 
z"/>
<path fill="#000000" opacity="1.000000" stroke="none" 
	d="
M318.064697,566.108582 
	C319.508759,575.081787 321.250854,583.571411 322.189606,592.148987 
	C323.424774,603.435486 322.453186,614.665588 320.435059,625.872314 
	C316.814392,645.977966 318.805634,665.960999 322.606049,685.838928 
	C323.994568,693.101685 322.264008,695.244202 314.773773,695.283752 
	C307.282227,695.323364 299.783173,695.477417 292.300201,695.215942 
	C283.576965,694.911072 281.343903,690.979065 285.963745,683.787659 
	C291.929810,674.500793 292.052216,664.352417 291.344055,653.950073 
	C290.216583,637.389221 285.620483,621.522217 280.875732,605.807495 
	C275.405518,587.690125 274.266022,569.198425 273.911102,550.564209 
	C273.610504,534.780823 273.849091,518.987244 273.849091,503.279480 
	C274.804657,502.271820 275.872894,502.597778 276.697662,503.040985 
	C281.186768,505.453094 286.094208,506.375092 291.033508,507.088013 
	C297.831177,508.069214 303.187073,511.404846 307.414215,516.676636 
	C310.122681,520.054382 312.797241,523.386902 316.393616,525.966736 
	C319.585602,528.256470 318.028015,531.786011 317.780487,534.805908 
	C316.936340,545.105042 316.362488,555.388672 318.064697,566.108582 
z"/>
<path fill="#000000" opacity="1.000000" stroke="none" 
	d="
M344.716675,252.032318 
	C330.420807,252.765152 316.667023,251.773193 302.920166,250.441315 
	C296.067291,249.777344 290.846649,246.159195 287.367188,240.708694 
	C282.675415,233.359222 279.869568,225.179672 279.689545,216.249451 
	C279.529449,208.307770 283.061859,202.663193 289.638458,198.473526 
	C297.552917,193.431610 306.453705,191.999893 315.431030,191.990341 
	C330.054260,191.974792 344.705139,190.995377 359.318390,192.634506 
	C363.666534,193.122223 367.872101,194.048645 371.859283,195.722122 
	C384.971344,201.225464 389.453400,210.180557 386.297668,224.140366 
	C385.302307,228.543518 383.779022,232.758682 381.888306,236.848343 
	C377.103088,247.198914 368.356232,250.878448 357.639099,251.299194 
	C353.486420,251.462250 349.338654,251.749207 344.716675,252.032318 
z"/>
<path fill="#000000" opacity="1.000000" stroke="none" 
	d="
M351.513916,155.602417 
	C341.174561,162.919281 330.583160,163.445999 319.590302,158.324036 
	C314.898315,156.137863 312.583649,151.828995 310.499603,147.432205 
	C309.348022,145.002716 308.076202,143.071976 305.507629,141.589172 
	C300.755310,138.845734 298.384186,126.009132 301.255127,119.885773 
	C302.319336,117.616013 302.509003,115.648994 301.996246,113.222534 
	C297.456970,91.741241 306.053345,79.020844 327.653137,75.035217 
	C342.273621,72.337425 357.576569,78.288147 364.754303,89.126350 
	C369.526428,96.332161 368.999786,103.961205 367.209320,111.732056 
	C366.512299,114.756996 366.462006,117.368660 367.746826,120.372498 
	C370.997864,127.973152 368.007446,137.642151 361.245697,142.817383 
	C359.967194,143.795868 359.479370,145.192841 358.897644,146.565613 
	C357.367279,150.176941 355.133148,153.220337 351.513916,155.602417 
z"/>
<path fill="#000000" opacity="1.000000" stroke="none" 
	d="
M352.651398,319.690735 
	C354.604279,319.603485 356.099854,319.539795 357.592255,319.431854 
	C360.690369,319.207764 362.215607,320.507172 362.249634,323.738251 
	C362.388000,336.877472 363.132538,349.973877 365.250549,362.967194 
	C365.399628,363.881592 365.321686,365.166443 364.785767,365.809174 
	C356.423767,375.837921 349.849487,387.493805 338.065094,394.414032 
	C334.513428,396.499695 331.906555,396.276184 328.493805,394.234619 
	C317.072998,387.402557 310.716187,375.995300 302.533478,366.236755 
	C301.477570,364.977478 301.628632,363.426849 301.888519,361.931763 
	C303.974182,349.933716 304.100586,337.777802 304.543304,325.668793 
	C304.711426,321.070312 306.316345,319.550354 310.753754,319.605408 
	C324.564941,319.776825 338.379456,319.684387 352.651398,319.690735 
z"/>
<path fill="#000000" opacity="1.000000" stroke="none" 
	d="
M356.482300,254.595764 
	C359.024963,254.372589 361.108887,253.228409 363.488281,254.570755 
	C363.726532,258.870911 361.754486,262.850739 361.135803,267.057922 
	C358.978546,281.727997 360.803864,296.308868 361.759552,310.907104 
	C362.143433,316.771576 361.864166,317.145477 355.994324,317.125641 
	C340.859314,317.074463 325.722015,317.025513 310.589722,317.249969 
	C306.256714,317.314240 304.693939,316.191406 305.060150,311.562195 
	C306.514832,293.175354 308.961792,274.718750 303.419128,256.521393 
	C303.248627,255.961533 303.507538,255.270889 303.607941,254.193771 
	C321.194214,255.304550 338.614014,255.195709 356.482300,254.595764 
z"/>
<path fill="#000000" opacity="1.000000" stroke="none" 
	d="
M406.860626,288.203979 
	C406.065582,286.232452 404.417572,284.973236 404.807190,282.537842 
	C409.971191,283.282043 414.291901,286.305328 419.206940,287.501862 
	C425.776550,289.101105 425.642700,289.173737 426.855408,282.684418 
	C427.770874,277.785492 428.904388,272.918579 430.179382,268.100525 
	C430.606018,266.488281 430.840210,264.448517 433.221741,263.639099 
	C434.691040,265.546356 435.075623,267.793732 435.300232,270.059540 
	C436.212463,279.261810 438.591064,287.991150 443.130066,296.124237 
	C448.645721,306.007416 450.371857,317.138153 453.029022,327.914978 
	C455.579651,338.259888 458.224335,348.557190 462.212677,358.437012 
	C463.601593,361.877625 462.900208,363.598145 459.479095,364.844727 
	C455.578888,366.265900 451.779419,367.989746 448.017548,369.755432 
	C445.405731,370.981323 443.785461,370.235107 443.116760,367.607483 
	C440.424011,357.026611 433.746399,348.603699 428.174377,339.562744 
	C420.878906,327.725494 416.136780,314.762177 411.879944,301.601776 
	C410.448608,297.176636 409.294647,292.643555 406.860626,288.203979 
z"/>
<path fill="#000000" opacity="1.000000" stroke="none" 
	d="
M247.593048,287.456726 
	C253.494812,285.213989 259.023987,283.077026 264.551575,280.940643 
	C264.816132,281.561798 265.130859,281.956604 265.036987,282.129272 
	C256.343597,298.118256 253.579422,316.496399 244.694229,332.431763 
	C241.772202,337.672333 238.759628,342.823395 235.411133,347.793152 
	C231.679749,353.331207 228.508331,359.135132 226.479813,365.560852 
	C224.576080,371.591309 224.422897,371.535950 218.475006,368.843628 
	C215.292633,367.403107 212.127930,365.893799 208.851929,364.698792 
	C205.897522,363.621002 205.022644,362.206421 206.318649,359.077271 
	C211.490189,346.590790 214.687973,333.488678 217.639618,320.352905 
	C219.655655,311.380951 222.149399,302.646393 226.457962,294.477509 
	C230.137543,287.501190 232.589523,280.142883 233.151245,272.203094 
	C233.276398,270.434235 233.861740,268.697906 234.219910,267.018341 
	C236.764847,266.870209 236.994324,268.536499 237.316422,269.915649 
	C238.336166,274.282288 239.792984,278.640289 240.065613,283.064209 
	C240.403351,288.544800 242.882965,289.171814 247.593048,287.456726 
z"/>
<path fill="#000000" opacity="1.000000" stroke="none" 
	d="
M384.750244,237.954651 
	C386.328888,235.228851 388.109833,235.007996 388.001801,238.075180 
	C387.663544,247.681000 390.726044,257.673767 384.779419,266.735870 
	C382.579895,270.087891 382.037201,274.068939 381.621887,278.133179 
	C379.898773,294.995270 380.089142,311.612946 386.641357,327.593292 
	C388.765259,332.773407 387.695648,337.009003 384.094849,341.241455 
	C379.899963,346.172211 376.268402,351.580597 372.353302,356.752136 
	C371.389343,358.025360 370.705017,359.719788 368.657043,359.768127 
	C366.997833,358.725739 366.995758,356.998199 366.906494,355.380798 
	C365.569214,331.148529 364.141846,306.920197 363.007355,282.678253 
	C362.617889,274.355377 363.485443,266.076691 366.050018,258.038696 
	C367.012878,255.020813 368.499725,252.918549 371.529541,251.473770 
	C377.381561,248.683197 381.889404,244.302994 384.750244,237.954651 
z"/>
<path fill="#000000" opacity="1.000000" stroke="none" 
	d="
M299.536926,357.873993 
	C298.131836,360.961121 296.776337,359.523926 295.742798,358.165985 
	C290.805023,351.678406 285.956116,345.123199 281.076172,338.591675 
	C280.092407,337.274963 280.101990,335.877777 280.526154,334.332703 
	C281.537994,330.646759 281.974518,326.732819 283.456879,323.258026 
	C290.296356,307.225708 288.192841,290.655945 286.734863,274.134460 
	C286.287201,269.062042 283.093750,264.897461 281.081055,260.355621 
	C278.676666,254.929794 277.803589,242.432999 279.656677,236.056366 
	C281.898315,235.972229 282.073639,237.987656 282.785126,239.304352 
	C285.559814,244.439255 289.359894,248.677856 294.675507,251.008469 
	C298.499451,252.685074 300.224487,255.404968 301.240265,259.118225 
	C304.819855,272.203705 304.198761,285.439606 303.077393,298.756165 
	C302.240967,308.689056 301.687653,318.658539 301.418762,328.622803 
	C301.158356,338.274078 300.416351,347.880402 299.536926,357.873993 
z"/>
<path fill="#000000" opacity="1.000000" stroke="none" 
	d="
M426.204346,242.866302 
	C430.825592,251.710251 432.195099,260.086273 427.293121,269.137787 
	C425.303040,272.812500 425.101196,277.463776 424.135162,281.682037 
	C423.513123,284.398346 422.301514,285.804138 419.230743,284.673431 
	C413.440308,282.541290 407.643463,280.343079 402.395996,277.133484 
	C398.336639,274.650574 397.788635,269.588562 395.667999,265.699554 
	C387.897614,251.449402 390.792603,236.445663 392.215027,220.159210 
	C403.299316,226.142197 409.857178,235.003693 416.756989,243.911285 
	C419.988922,240.381134 417.975525,235.578644 421.115295,232.338242 
	C424.159546,235.231735 424.732849,239.065643 426.204346,242.866302 
z"/>
<path fill="#000000" opacity="1.000000" stroke="none" 
	d="
M253.899567,238.929840 
	C259.578064,231.754486 265.378540,225.226334 273.815338,220.708755 
	C276.029480,224.840744 275.939301,229.084366 275.997375,233.010757 
	C276.119843,241.292007 276.872772,249.614197 275.386414,257.878662 
	C273.635132,267.616394 270.165894,276.003204 259.856293,279.672150 
	C255.640289,281.172485 251.565186,283.066437 247.412628,284.748291 
	C244.747787,285.827606 243.287201,284.726929 242.803558,282.051666 
	C241.529495,275.003937 239.760757,268.098755 237.094467,261.432129 
	C236.740402,260.546906 236.484711,259.348572 236.788757,258.516418 
	C239.668060,250.636093 242.678528,242.803680 245.734360,234.738052 
	C249.633621,236.944794 246.996414,241.227127 249.549240,243.314972 
	C252.178116,243.001648 252.434860,240.606583 253.899567,238.929840 
z"/>
<path fill="#000000" opacity="1.000000" stroke="none" 
	d="
M419.975464,226.501434 
	C418.455688,229.835770 417.032013,232.775513 415.596619,235.739471 
	C412.766235,235.005203 411.901154,232.565247 410.218140,231.064301 
	C407.986755,229.074203 406.182373,226.515533 403.746216,224.861496 
	C396.096832,219.667953 389.289459,214.235016 387.298737,204.242859 
	C386.467255,200.069534 381.857208,197.746262 378.183899,195.400681 
	C376.685150,194.443634 374.723236,194.087921 373.880737,192.224594 
	C390.402802,182.660217 414.333527,189.522125 418.184967,212.307449 
	C418.958344,216.882812 419.450012,221.505798 419.975464,226.501434 
z"/>
<path fill="#000000" opacity="1.000000" stroke="none" 
	d="
M264.227448,191.993195 
	C274.065338,186.529922 283.637360,187.660751 293.308289,191.539398 
	C293.233185,193.998047 290.979736,194.134354 289.543243,194.949478 
	C283.165283,198.568665 278.514893,203.419006 277.152832,210.931824 
	C276.630493,213.813049 275.168854,216.429108 272.669312,217.896545 
	C265.084381,222.349594 258.967041,228.383774 253.291687,234.966965 
	C252.905960,235.414398 252.188629,235.575958 251.673004,235.845627 
	C246.636520,230.319000 249.011215,224.168930 249.734909,218.240005 
	C251.020142,207.710388 253.740402,197.906494 264.227448,191.993195 
z"/>
<path fill="#000000" opacity="1.000000" stroke="none" 
	d="
M317.841949,186.034073 
	C315.858978,177.465439 312.557068,169.374496 316.741699,160.169525 
	C328.528290,166.542694 340.435730,166.330154 352.116455,158.613663 
	C353.856903,162.178314 353.645477,165.223465 353.153015,168.009659 
	C352.084656,174.054352 350.516235,180.010056 349.180725,186.008453 
	C348.642029,188.428070 346.971405,189.104980 344.749969,189.099152 
	C337.268372,189.079544 329.786682,189.087555 322.305054,189.075027 
	C320.332123,189.071716 318.703613,188.464951 317.841949,186.034073 
z"/>
<path fill="#000000" opacity="1.000000" stroke="none" 
	d="
M353.490723,179.577011 
	C354.192322,176.817352 354.253204,174.262802 356.245605,171.796860 
	C365.004059,175.916748 372.884796,181.714569 382.059875,185.431046 
	C372.841156,188.333878 363.852722,190.879578 354.317627,188.618546 
	C352.553711,188.200272 351.802124,187.109863 352.180786,185.325516 
	C352.560455,183.536682 352.991302,181.758698 353.490723,179.577011 
z"/>
<path fill="#000000" opacity="1.000000" stroke="none" 
	d="
M298.088440,188.952209 
	C293.951721,187.822159 289.806732,188.413177 285.079376,185.510391 
	C294.653320,181.682877 302.727875,177.147812 311.035553,172.519211 
	C313.363953,177.093262 313.809631,181.381332 314.580627,185.574524 
	C315.047607,188.114441 313.330536,188.807968 311.376404,188.997711 
	C307.091644,189.413757 302.794373,190.200684 298.088440,188.952209 
z"/>
</svg>